<svg xmlns:xlink="http://www.w3.org/1999/xlink" xmlns="http://www.w3.org/2000/svg" width="110" height="47" fill="none"><g opacity="0.92" fill="none"><path fill="#D94407" fill-rule="evenodd" d="M25.352 18.474-97.285 57.49l-2.483-15.828s17.518 3.798 33.718-1.43c16.2-5.228 15.155-11.892 30.567-16.522 14.182-4.26 33.13-.417 57.79-5.765l3.045.527Z" clip-rule="evenodd" opacity="0.4"></path><path fill="#D94407" d="M107.64 7.764 30.245 25.008 16.348 23.6a9.91 9.91 0 0 1-6.768-3.752L90.709 1.774a30.699 30.699 0 0 1 13.313-.008l1.195.264a6.965 6.965 0 0 1 3.582 2.06 2.243 2.243 0 0 1-1.159 3.674Z"></path><path fill="#D94407" d="M108.801 4.057a6.538 6.538 0 0 0-.784-.726L16.931 23.623l13.316 1.406 77.395-17.264a2.224 2.224 0 0 0 1.664-1.515 2.233 2.233 0 0 0-.505-2.193Z" opacity="0.1"></path><path fill="#FFFFFF" d="M104.025 1.733a30.168 30.168 0 0 0-3.648-.571L86.016 4.365a1.702 1.702 0 0 0 2.046 1.298l16.817-3.75-.854-.18ZM83.266 5.847l-.247.055a.472.472 0 0 0-.358.563l.167.747a.472.472 0 0 0 .563.358l.246-.055a.472.472 0 0 0 .358-.563l-.166-.747a.471.471 0 0 0-.563-.358ZM80.535 6.467l-.247.055a.472.472 0 0 0-.357.563l.166.747a.472.472 0 0 0 .563.358l.246-.055a.472.472 0 0 0 .358-.563l-.166-.747a.472.472 0 0 0-.563-.358ZM77.807 7.067l-.247.055a.472.472 0 0 0-.358.563l.167.747a.472.472 0 0 0 .563.358l.246-.055a.472.472 0 0 0 .358-.563l-.166-.747a.472.472 0 0 0-.563-.358ZM75.068 7.68l-.246.056a.472.472 0 0 0-.358.563l.166.747a.472.472 0 0 0 .563.357l.247-.055a.472.472 0 0 0 .358-.563l-.167-.747a.472.472 0 0 0-.563-.357ZM72.328 8.29l-.247.055a.472.472 0 0 0-.357.563l.166.747a.471.471 0 0 0 .563.358l.246-.055a.472.472 0 0 0 .358-.563l-.166-.747a.472.472 0 0 0-.563-.358ZM69.608 8.886l-.247.055a.472.472 0 0 0-.358.563l.167.747a.472.472 0 0 0 .563.358l.246-.055a.471.471 0 0 0 .358-.563l-.167-.747a.471.471 0 0 0-.563-.358ZM66.867 9.513l-.246.055a.472.472 0 0 0-.358.563l.166.747a.472.472 0 0 0 .563.358l.246-.055a.471.471 0 0 0 .358-.563l-.166-.747a.471.471 0 0 0-.563-.358Z"></path><path fill="#D94407" d="m64.135 10.107-.247.055a.472.472 0 0 0-.358.563l.167.747a.472.472 0 0 0 .563.357l.247-.055a.472.472 0 0 0 .357-.563l-.166-.747a.472.472 0 0 0-.563-.357ZM61.404 10.724l-.246.055a.471.471 0 0 0-.358.562l.166.748a.472.472 0 0 0 .563.357l.247-.055a.472.472 0 0 0 .357-.562l-.166-.748a.472.472 0 0 0-.563-.357ZM58.674 11.326l-.247.055a.471.471 0 0 0-.358.563l.167.747a.472.472 0 0 0 .563.358l.247-.055a.472.472 0 0 0 .357-.563l-.166-.747a.472.472 0 0 0-.563-.358ZM55.93 11.943l-.247.055a.472.472 0 0 0-.358.562l.166.747a.472.472 0 0 0 .563.358l.247-.055a.471.471 0 0 0 .358-.562l-.166-.748a.471.471 0 0 0-.563-.357ZM53.2 12.553l-.248.055a.471.471 0 0 0-.357.563l.166.747a.472.472 0 0 0 .563.358l.247-.056a.471.471 0 0 0 .358-.562l-.167-.747a.472.472 0 0 0-.563-.358Z"></path><path fill="#FFFFFF" d="m50.966 13.48-.248.055a.474.474 0 0 0-.36.565l.166.75c.057.256.31.417.565.36l.248-.055a.474.474 0 0 0 .36-.564l-.166-.75a.474.474 0 0 0-.565-.361ZM47.734 13.765l-.246.055a.472.472 0 0 0-.358.563l.166.747a.472.472 0 0 0 .563.357l.247-.055a.472.472 0 0 0 .358-.563l-.167-.747a.472.472 0 0 0-.563-.357ZM45.002 14.365l-.247.055a.471.471 0 0 0-.358.563l.167.747a.472.472 0 0 0 .563.358l.246-.055a.472.472 0 0 0 .358-.563l-.166-.747a.472.472 0 0 0-.563-.358ZM42.272 14.984l-.247.055a.472.472 0 0 0-.358.563l.167.747a.472.472 0 0 0 .563.358l.246-.055a.472.472 0 0 0 .358-.563l-.167-.747a.472.472 0 0 0-.563-.358ZM39.535 15.604l-.247.055a.471.471 0 0 0-.357.562l.166.748a.471.471 0 0 0 .563.357l.247-.054a.472.472 0 0 0 .357-.563l-.166-.747a.472.472 0 0 0-.563-.358ZM36.795 16.21l-.247.055a.472.472 0 0 0-.358.562l.167.748a.471.471 0 0 0 .562.357l.247-.054a.472.472 0 0 0 .358-.563l-.166-.747a.472.472 0 0 0-.563-.358ZM34.066 16.812l-.246.055a.472.472 0 0 0-.358.563l.167.747a.471.471 0 0 0 .562.357l.247-.055a.472.472 0 0 0 .358-.563l-.167-.747a.471.471 0 0 0-.563-.357ZM31.336 17.414l-.247.055a.472.472 0 0 0-.358.563l.167.747a.471.471 0 0 0 .563.357l.247-.055a.472.472 0 0 0 .357-.562l-.166-.747a.471.471 0 0 0-.563-.358Z"></path><path fill="#D94407" d="m11.793 7.479-4 .924 3.294 11.109 15.483-3.487c-5.259 1.173-14.777-8.546-14.777-8.546Z"></path><path fill="#EED0C4" d="M36.943 21.695a4.517 4.517 0 0 0-2.874-1.061l-10.784-.08-5 1.112 8.544 2.281 10.114-2.252ZM82.402 12.617 48.155 8.086a16.231 16.231 0 0 0-5.687.25l-4.459.99 20.724 8.564 23.669-5.273ZM80.978 13.323l-19.85 10.24a14.729 14.729 0 0 1-3.537 1.275l-2.962.674 5.99-7.643 20.359-4.546Z"></path><path fill="#EED0C4" d="m24.666 24.431 5.581.584 77.396-17.25a2.242 2.242 0 0 0 1.763-2.216L24.666 24.43Z"></path></g></svg>