<?xml version="1.0" encoding="UTF-8"?>
<svg version="1.1" viewBox="0 0 2000 2000" xmlns="http://www.w3.org/2000/svg">
 <defs>
  <filter id="a" x="-.018201" y="-.017803" width="1.0364" height="1.0356" color-interpolation-filters="sRGB">
   <feGaussianBlur stdDeviation="14.538785"/>
  </filter>
 </defs>
 <path d="m1966.5 772.27-468.55 264.11 415.5 341.54-534.3-61.731 135.39 520.54l-395.98-364-196.43 500.71-106.4-527.23-453.22 289.62 223.82-489.08-536.9-32.088 468.55-264.11-415.5-341.54 534.3 61.731-135.39-520.54 395.98 364 196.43-500.71 106.4 527.23 453.22-289.62-223.82 489.08z" fill="#c8beb7" filter="url(#a)" style="paint-order:markers fill stroke"/>
 <path d="m1905.9 779.74-448.94 253.06 398.11 327.25-511.94-59.148 129.73 498.75l-379.4-348.76-188.21 479.75-101.95-505.16-434.25 277.5 214.45-468.61-514.43-30.745 448.94-253.06-398.11-327.25 511.94 59.148-129.73-498.75 379.4 348.76 188.21-479.75 101.95 505.16 434.25-277.5-214.45 468.61z" fill="#d40000" style="paint-order:markers fill stroke"/>
 <path d="m1905.9 779.74-448.94 253.06 398.11 327.25-511.94-59.148 129.73 498.75l-379.4-348.76-188.21 479.75-101.95-505.16-434.25 277.5 214.45-468.61-514.43-30.745 448.94-253.06-398.11-327.25 511.94 59.148-129.73-498.75 379.4 348.76 188.21-479.75 101.95 505.16 434.25-277.5-214.45 468.61z" fill="#d40000" style="paint-order:markers fill stroke"/>
 <path d="m912.31 1838.7c-0.12773-4.3052-90.554-450.7-91.487-451.64-0.48673-0.4868-88.437 55.069-195.45 123.46-107.01 68.388-194.84 124-195.17 123.58-0.33705-0.4206 42.673-95.281 95.579-210.8 52.905-115.52 95.851-210.31 95.435-210.64-1.0344-0.8317-436.72-26.526-448.28-26.437-5.0842 0.039-9.7877-0.8088-10.452-1.8841-0.66457-1.0753 88.84-52.636 198.9-114.58s200.13-113.19 200.17-113.89c0.0326-0.6968-79.993-67.062-177.84-147.48-97.842-80.416-177.5-146.61-177.01-147.1 0.48675-0.48677 103.32 10.95 228.52 25.416s228.29 26.005 229.1 25.644c0.80759-0.36154-24.422-100.11-56.066-221.66s-56.858-221.68-56.031-222.5c0.82673-0.82673 77.378 68.318 170.11 153.66 156.45 143.97 168.81 154.78 171.39 149.87 1.5314-2.9062 39.762-99.665 84.957-215.02 45.195-115.35 82.69-209.22 83.322-208.59 0.632 0.63214 21.57 102.13 46.528 225.54s46.305 224.45 47.437 224.52c1.1325 0.0721 88.843-55.322 194.91-123.1 106.07-67.776 193.22-122.85 193.66-122.38 0.4457 0.46955-42.292 94.959-94.973 209.98l-95.783 209.12 11.509 1.8633c6.3301 1.0248 109 7.5301 228.15 14.456s218.32 12.863 220.37 13.193c2.0539 0.33031-84.162 50.109-191.59 110.62-107.43 60.51-198.52 111.93-202.41 114.27l-7.0885 4.2504 179.18 147.3c98.55 81.014 178.94 147.48 178.64 147.7-0.2958 0.2212-103.36-11.487-229.02-26.018s-229.14-25.764-229.94-24.963c-0.8011 0.8011 24.573 101.46 56.388 223.7 31.814 122.23 57.523 222.54 57.131 222.9s-77.272-69.718-170.84-155.74c-115.3-106-170.69-155.35-171.87-153.14-0.9579 1.7953-38.624 97.37-83.703 212.39-79.372 202.52-86.223 219.5-86.382 214.13z" fill="#ffd42a" style="paint-order:markers fill stroke"/>
 <text transform="scale(.85625 1.1679)" x="1151.4006" y="836.45972" fill="#550000" font-family="Magneto" font-size="348.79px" letter-spacing="0px" stroke-width=".87197" text-align="center" text-anchor="middle" word-spacing="0px" style="line-height:0.80000001">
  <tspan x="1151.4006" y="836.45972">50%</tspan>
  <tspan x="1151.4006" y="1115.4912">OFF</tspan>
 </text>
</svg>
