<svg xmlns:xlink="http://www.w3.org/1999/xlink" xmlns="http://www.w3.org/2000/svg" width="143" height="113" fill="none"><path fill="url(&quot;#train_svg__a&quot;)" d="m125.973 62.4.103.238L2.983 115.858l-.103-.238 123.093-53.222Z"></path><path fill="url(&quot;#train_svg__b&quot;)" d="m28.2 119.164-8.79-6.531 1.12-.484 8.778 6.538-1.108.477Z"></path><path fill="url(&quot;#train_svg__c&quot;)" d="m31.555 117.718-8.79-6.534 1.117-.484 8.781 6.538-1.108.48Z"></path><path fill="url(&quot;#train_svg__d&quot;)" d="m34.91 116.267-8.79-6.533 1.117-.482 8.778 6.537-1.106.478Z"></path><path fill="url(&quot;#train_svg__e&quot;)" d="m38.256 114.821-8.789-6.534 1.12-.484 8.777 6.538-1.108.48Z"></path><path fill="url(&quot;#train_svg__f&quot;)" d="m41.604 113.369-8.79-6.533 1.117-.482 8.78 6.538-1.107.477Z"></path><path fill="url(&quot;#train_svg__g&quot;)" d="m44.962 111.919-8.79-6.531 1.117-.484 8.778 6.538-1.105.477Z"></path><path fill="url(&quot;#train_svg__h&quot;)" d="m48.31 110.474-8.788-6.534 1.116-.482 8.78 6.538-1.107.478Z"></path><path fill="url(&quot;#train_svg__i&quot;)" d="m51.66 109.024-8.789-6.531 1.117-.485 8.78 6.538-1.108.478Z"></path><path fill="url(&quot;#train_svg__j&quot;)" d="m55.016 107.575-8.789-6.534 1.117-.484 8.778 6.538-1.106.48Z"></path><path fill="url(&quot;#train_svg__k&quot;)" d="m58.36 106.125-8.79-6.534 1.117-.481 8.78 6.537-1.107.478Z"></path><path fill="url(&quot;#train_svg__l&quot;)" d="m61.715 104.677-8.789-6.533 1.117-.485 8.78 6.538-1.108.48Z"></path><path fill="url(&quot;#train_svg__m&quot;)" d="m65.067 103.228-8.788-6.534 1.116-.481 8.778 6.537-1.106.478Z"></path><path fill="url(&quot;#train_svg__n&quot;)" d="m68.42 101.778-8.789-6.532 1.117-.484 8.78 6.538-1.108.478Z"></path><path fill="url(&quot;#train_svg__o&quot;)" d="m71.77 100.33-8.789-6.533 1.116-.482 8.78 6.538-1.107.477Z"></path><path fill="url(&quot;#train_svg__p&quot;)" d="m75.122 98.88-8.79-6.531 1.118-.484 8.778 6.537-1.106.478Z"></path><path fill="url(&quot;#train_svg__q&quot;)" d="m78.469 97.433-8.79-6.534 1.118-.484 8.78 6.538-1.108.48Z"></path><path fill="url(&quot;#train_svg__r&quot;)" d="m81.823 95.983-8.79-6.534 1.117-.482 8.78 6.538-1.107.478Z"></path><path fill="url(&quot;#train_svg__s&quot;)" d="m85.174 94.535-8.788-6.533 1.116-.484 8.778 6.537-1.106.48Z"></path><path fill="url(&quot;#train_svg__t&quot;)" d="m88.524 93.085-8.79-6.533 1.117-.482 8.78 6.538-1.107.477Z"></path><path fill="url(&quot;#train_svg__u&quot;)" d="m91.877 91.635-8.789-6.53 1.117-.485 8.78 6.538-1.108.477Z"></path><path fill="url(&quot;#train_svg__v&quot;)" d="m95.23 90.187-8.79-6.534 1.117-.481 8.778 6.537-1.105.478Z"></path><path fill="url(&quot;#train_svg__w&quot;)" d="m98.579 88.737-8.79-6.531 1.117-.485 8.78 6.538-1.108.478Z"></path><path fill="url(&quot;#train_svg__x&quot;)" d="m101.932 87.29-8.789-6.534 1.116-.482 8.781 6.535-1.108.48Z"></path><path fill="url(&quot;#train_svg__y&quot;)" d="m105.28 85.84-8.789-6.531 1.117-.485 8.778 6.538-1.106.478Z"></path><path fill="url(&quot;#train_svg__z&quot;)" d="m108.633 84.392-8.79-6.534 1.118-.484 8.78 6.538-1.108.48Z"></path><path fill="url(&quot;#train_svg__A&quot;)" d="m111.983 82.942-8.789-6.533 1.116-.482 8.781 6.538-1.108.477Z"></path><path fill="url(&quot;#train_svg__B&quot;)" d="m115.339 81.495-8.789-6.534 1.116-.484 8.778 6.538-1.105.48Z"></path><path fill="url(&quot;#train_svg__C&quot;)" d="m118.686 80.045-8.789-6.534 1.116-.482 8.781 6.538-1.108.478Z"></path><path fill="url(&quot;#train_svg__D&quot;)" d="m122.037 78.595-8.789-6.53 1.117-.485 8.781 6.538-1.109.477Z"></path><path fill="url(&quot;#train_svg__E&quot;)" d="m125.39 77.148-8.789-6.534 1.116-.482 8.778 6.535-1.105.48Z"></path><path fill="url(&quot;#train_svg__F&quot;)" d="m128.741 75.698-8.79-6.531 1.117-.485 8.781 6.538-1.108.478Z"></path><path fill="url(&quot;#train_svg__G&quot;)" d="m132.094 74.25-8.789-6.534 1.117-.484 8.78 6.538-1.108.48Z"></path><path fill="url(&quot;#train_svg__H&quot;)" d="m17.032 123.997 117.292-50.713-.454-.343-117.294 50.716.456.34Z"></path><path fill="url(&quot;#train_svg__I&quot;)" d="m4.2 119.385 121.785-52.283-.471-.354-121.79 52.286.476.351Z"></path><path fill="url(&quot;#train_svg__J&quot;)" d="m133.782 77.401.103.238L14.36 129.318l-.103-.238 119.525-51.679Z"></path><path fill="url(&quot;#train_svg__K&quot;)" d="m106.621 98.35-6.225 53.653 18.843 2.186 5.933-51.135c.991-8.54-4.209-12.869-11.612-9.669-2.439 1.055-4.815 2.798-6.939 4.965Z"></path><path fill="url(&quot;#train_svg__L&quot;)" d="m98.247 114.63-4.25 36.629.23.027 4.249-36.629c.655-5.644 3.874-11.733 8.123-16.114 2.139-2.21 4.54-3.987 7.006-5.051 3.383-1.462 6.43-1.388 8.569.21 2.321 1.725 3.37 5.13 2.881 9.343l-5.932 51.135.229.026 5.933-51.139c.506-4.36-.55-7.754-2.971-9.555-2.215-1.646-5.34-1.73-8.799-.237-7.425 3.216-14.275 12.793-15.268 21.355Z"></path><path fill="url(&quot;#train_svg__M&quot;)" d="m98.424 114.742-4.25 36.629.23.026 4.25-36.629c.655-5.644 3.874-11.733 8.122-16.114 2.14-2.21 4.54-3.987 7.007-5.05 3.382-1.463 6.43-1.389 8.569.21 2.321 1.724 3.37 5.129 2.881 9.343l-5.933 51.134.23.027 5.933-51.14c.506-4.36-.55-7.753-2.971-9.554-2.215-1.647-5.34-1.73-8.799-.238-7.425 3.216-14.275 12.794-15.269 21.356Z"></path><path fill="#FFFFFF" d="m242.741 12.918.103.235L124.107 63.97l-.102-.235 118.736-50.817ZM135.642 73.046l-8.741-6.448 1.111-.474 8.731 6.452-1.101.47ZM138.97 71.62l-8.741-6.446 1.109-.476 8.733 6.452-1.101.47ZM142.303 70.197l-8.741-6.449 1.109-.473 8.73 6.452-1.098.47ZM145.63 68.77l-8.741-6.445 1.112-.476 8.73 6.452-1.101.469ZM148.96 67.347l-8.741-6.448 1.109-.477 8.733 6.453-1.101.472ZM152.289 65.921l-8.741-6.448 1.109-.473 8.73 6.451-1.098.47Z"></path><path fill="#FFFFFF" d="m134.558 73.524 122.671-52.276-.475-.355L134.08 73.172l.478.352ZM126.244 67.409l116.512-49.866-.451-.338-116.516 49.868.455.336Z"></path><path fill="#D94407" d="m267.915 20.208.103.235-134.128 57.23h-.632l134.657-57.465Z"></path><path fill="#FFFFFF" d="M13.463 28.806c2.64-.132 4.617 2.649 5.434 5.831 2.132-1.392 6.57-2.374 7.96.116-2.402-1.756-5.648-.98-7.9.645-.154.095-.54.149-.597-.158-.67-3.48-2.68-5.807-4.897-6.434ZM25.233 40.68c2.034-.256 3.604 2.388 3.893 4.392 1.563-1.208 3.992-2.443 5.713-.983-2.228-.824-3.96.176-5.599 1.572-.113.085-.441.155-.482-.086-.286-2.333-1.797-4.552-3.525-4.895Z"></path><path fill="#D94407" d="M157.348 65.236c.688-6.54.969-15.946 1.017-17.644l-11.836-8.794c-.527 2.478-2.153 10.321-2.867 16.272l13.686 10.166Z"></path><path fill="#E0E0E0" d="m118.267 49.971 27.926-12.074 12.689 9.436s-.286 11.606-1.128 18.859l-27.926 12.074-14.652-10.89c.852-7.25 3.091-17.405 3.091-17.405Z"></path><path fill="#FFFFFF" d="M130.186 74.674c-.104 1.262-.219 2.479-.349 3.592l27.926-12.074c.13-1.113.244-2.323.35-3.595l-27.927 12.077Z"></path><path fill="#000" d="M130.186 74.674c-.104 1.262-.219 2.479-.349 3.592l27.926-12.074c.13-1.113.244-2.323.35-3.595l-27.927 12.077Z" opacity="0.2"></path><path fill="#E0E0E0" d="m130.968 59.407-12.7-9.437s-2.238 10.154-3.079 17.404l14.651 10.89c.842-7.25 1.128-18.857 1.128-18.857Z"></path><path fill="#000" d="m130.968 59.407-12.7-9.437s-2.238 10.154-3.079 17.404l14.651 10.89c.842-7.25 1.128-18.857 1.128-18.857Z" opacity="0.2"></path><path fill="#FFFFFF" d="m130.966 59.408.07-.606-12.7-9.435-.07.603 12.7 9.438Z"></path><path fill="#FFFFFF" d="m131.036 58.802 27.926-12.075-12.7-9.434-27.926 12.074 12.7 9.435Z"></path><path fill="#FFFFFF" d="m131.036 58.802 27.926-12.075-12.7-9.434-27.926 12.074 12.7 9.435Z" opacity="0.3"></path><path fill="#FFFFFF" d="m131.035 58.802-.07.606 27.926-12.075.07-.605-27.926 12.074Z"></path><path fill="#FFFFFF" d="m131.035 58.802-.07.606 27.926-12.075.07-.605-27.926 12.074Z" opacity="0.15"></path><path fill="#EFBCA8" d="M132.343 59.964c-.07 2.342-.266 7.831-.649 12.911l25.21-10.906c.382-5.137.577-10.673.646-12.912l-25.207 10.907Z"></path><path fill="#D94407" d="M155.911 61.273c.28-3.945.453-8.045.544-10.607l-23.1 9.989c-.071 2.19-.216 6.364-.51 10.59l23.066-9.972Z"></path><path fill="#EFBCA8" d="m141.345 68.702-1.4.605c.382-5.12.576-10.642.646-12.912l1.399-.595c-.069 2.257-.263 7.78-.645 12.902Z"></path><path fill="#EFBCA8" d="m149.395 56.032-.06.515-16.756 7.245.06-.515 16.756-7.245Z"></path><path fill="#FFFFFF" d="m128.122 47.324 12.287-5.314 2.931 2.179-.026.227-12.287 5.313-2.931-2.179.026-.226Z"></path><path fill="#FFFFFF" d="m143.34 44.189-12.287 5.313-2.931-2.178 12.287-5.314 2.931 2.179Z"></path><path fill="#FFFFFF" d="m143.342 44.19-12.287 5.313-2.931-2.18 12.277-5.23 2.941 2.096Z" opacity="0.3"></path><path fill="#000" d="m143.344 44.19-12.287 5.313-.027.227 12.287-5.313.027-.227Z" opacity="0.15"></path><path fill="#FFFFFF" d="m131.055 49.503-2.931-2.18-.026.227 2.931 2.18.026-.227Z"></path><path fill="#EBEBEB" d="m131.054 49.506 12.287-5.314 2.929 2.18-.07.602-12.243 4.935-2.929-2.176.026-.227Z"></path><path fill="#FFFFFF" d="m146.27 46.371-12.287 5.314-2.929-2.18 12.287-5.313 2.929 2.18Z"></path><path fill="#FFFFFF" d="m146.27 46.371-12.287 5.314-2.929-2.18 12.287-5.313 2.929 2.18Z" opacity="0.6"></path><path fill="#FFFFFF" d="m133.985 51.684-2.929-2.178-.026.227 2.929 2.176.026-.225Z"></path><path fill="#FFFFFF" d="m133.985 51.684-2.929-2.178-.026.227 2.929 2.176.026-.225Z" opacity="0.3"></path><path fill="#FFFFFF" d="m133.984 51.68 12.289-5.312 2.929 2.176-.026.227-12.287 5.314-2.932-2.18.027-.226Z"></path><path fill="#FFFFFF" d="m149.202 48.544-12.287 5.314-2.931-2.179 12.289-5.31 2.929 2.175Z"></path><path fill="#FFFFFF" d="m149.038 48.525-12.125 5.332-2.931-2.179 12.289-5.31 2.767 2.157Z" opacity="0.3"></path><path fill="#FFFFFF" d="m149.201 48.545-12.287 5.313-.026.227 12.287-5.313.026-.227Z" opacity="0.15"></path><path fill="#FFFFFF" d="m136.911 53.858-2.932-2.18-.026.228 2.931 2.179.027-.227Z"></path><path fill="#D94407" d="m134.29 50.946-1.912-1.418c-.116-.087-.171-.172-.124-.192a.46.46 0 0 1 .294.12l1.912 1.418c.115.087.171.171.121.192-.049.02-.179-.034-.291-.12ZM135.243 50.534l-1.912-1.418c-.115-.086-.17-.171-.124-.192.11.003.214.044.295.118l1.912 1.42c.115.085.171.17.124.19a.439.439 0 0 1-.295-.118ZM136.195 50.12l-1.912-1.417c-.115-.087-.171-.172-.121-.192a.462.462 0 0 1 .294.12l1.907 1.418c.115.087.171.171.124.192a.461.461 0 0 1-.292-.12ZM137.152 49.708l-1.925-1.422c-.116-.084-.171-.169-.122-.19.11.002.215.044.295.119l1.925 1.42c.112.085.168.17.121.19-.047.021-.179-.033-.294-.117ZM138.106 49.295l-1.925-1.42c-.116-.087-.168-.171-.122-.192.047-.02.179.034.295.12l1.924 1.42c.116.087.169.171.122.192a.46.46 0 0 1-.294-.12ZM139.06 48.883l-1.924-1.422c-.116-.084-.168-.171-.122-.19a.444.444 0 0 1 .295.118l1.924 1.42c.116.087.171.172.122.192-.049.02-.179-.034-.295-.118ZM140.015 48.468l-1.924-1.42c-.113-.086-.169-.17-.122-.191a.456.456 0 0 1 .295.118l1.924 1.422c.116.084.171.171.122.189a.444.444 0 0 1-.295-.118ZM140.974 48.057l-1.925-1.423c-.115-.084-.171-.171-.124-.19a.438.438 0 0 1 .294.119l1.925 1.42c.116.086.171.17.124.191a.449.449 0 0 1-.294-.117ZM141.926 47.643l-1.925-1.42c-.115-.086-.171-.17-.121-.191.049-.02.18.02.292.117l1.924 1.422c.116.085.171.172.125.19a.439.439 0 0 1-.295-.118ZM142.877 47.23l-1.924-1.422c-.116-.084-.171-.171-.122-.19a.445.445 0 0 1 .295.118l1.912 1.419c.112.086.168.17.121.191-.047.021-.166-.032-.282-.116ZM143.83 46.816l-1.925-1.42c-.115-.086-.168-.17-.121-.19.047-.022.18.02.294.117l1.925 1.422c.116.084.168.171.122.19a.441.441 0 0 1-.295-.119ZM144.788 46.402l-1.912-1.418c-.116-.086-.168-.17-.122-.191.11.004.214.046.295.12l1.925 1.42c.115.086.17.17.121.191-.049.02-.192-.035-.307-.122Z"></path><path fill="#EFBCA8" d="M112.953 68.346c.714-5.951 2.34-13.795 2.867-16.273l2.784-1.205 11.836 8.794c-.049 1.703-.331 11.11-1.018 17.644l-2.783 1.203-13.686-10.163Z"></path><path fill="#D94407" d="m130.438 59.662-2.784 1.206-11.836-8.794 2.783-1.206 11.837 8.794ZM126.639 78.514c.685-6.536.969-15.943 1.015-17.644l-11.834-8.793c-.527 2.477-2.153 10.32-2.867 16.272l13.686 10.165Z"></path><path fill="#D94407" d="M126.638 78.514c.686-6.537.97-15.944 1.016-17.644l-11.834-8.797c-.528 2.48-2.153 10.324-2.867 16.275l13.685 10.166Z"></path><path fill="#E0E0E0" d="m87.555 63.25 27.928-12.075 12.697 9.437s-.284 11.607-1.125 18.86L99.129 91.545l-14.652-10.89c.842-7.252 3.078-17.407 3.078-17.407Z"></path><path fill="#FFFFFF" d="M99.475 87.959c-.105 1.262-.22 2.479-.35 3.592l27.928-12.08c.129-1.112.243-2.322.349-3.595L99.475 87.96Z"></path><path fill="#000" d="M99.475 87.959c-.105 1.262-.22 2.479-.35 3.592l27.928-12.08c.129-1.112.243-2.322.349-3.595L99.475 87.96Z" opacity="0.2"></path><path fill="#E0E0E0" d="M100.259 72.688 87.558 63.25s-2.24 10.154-3.08 17.404l14.651 10.89c.844-7.25 1.13-18.856 1.13-18.856Z"></path><path fill="#000" d="M100.259 72.688 87.558 63.25s-2.24 10.154-3.08 17.404l14.651 10.89c.844-7.25 1.13-18.856 1.13-18.856Z" opacity="0.2"></path><path fill="#FFFFFF" d="m100.25 72.687.071-.606-12.697-9.437-.07.606 12.696 9.437ZM128.18 60.612l.07-.605-12.699-9.438-.07.606 12.699 9.437Z"></path><path fill="#FFFFFF" d="m100.322 72.08 27.928-12.073-12.699-9.438-27.926 12.075 12.697 9.437Z"></path><path fill="#FFFFFF" d="m100.322 72.08 27.928-12.073-12.699-9.438-27.926 12.075 12.697 9.437Z" opacity="0.3"></path><path fill="#FFFFFF" d="m100.323 72.08-.07.606 27.929-12.074.07-.606-27.929 12.074Z"></path><path fill="#FFFFFF" d="m100.323 72.08-.07.606 27.929-12.074.07-.606-27.929 12.074Z" opacity="0.15"></path><path fill="#EFBCA8" d="M101.624 73.244c-.071 2.342-.266 7.83-.649 12.911l25.214-10.9c.382-5.138.578-10.673.647-12.912l-25.212 10.9Z"></path><path fill="#D94407" d="M125.202 74.552c.28-3.946.45-8.046.544-10.608l-23.1 9.989c-.071 2.19-.216 6.364-.51 10.59l23.066-9.971Z"></path><path fill="#EFBCA8" d="m119.187 78.282-1.402.605c.382-5.12.579-10.642.646-12.912l1.403-.605c-.07 2.267-.256 7.79-.647 12.912ZM110.632 81.98l-1.402.605c.382-5.12.579-10.642.647-12.912l1.402-.605c-.069 2.264-.264 7.787-.647 12.912Z"></path><path fill="#EFBCA8" d="m118.68 69.311-.06.516-16.755 7.242.059-.513 16.756-7.245Z"></path><path fill="#FFFFFF" d="M97.413 60.603 109.7 55.29l2.931 2.179-.026.227-12.289 5.31-2.93-2.176.027-.227Z"></path><path fill="#FFFFFF" d="m112.631 57.469-12.289 5.313-2.929-2.179L109.7 55.29l2.931 2.179Z"></path><path fill="#FFFFFF" d="m112.631 57.469-12.289 5.313-2.93-2.178 12.278-5.232 2.941 2.097Z" opacity="0.3"></path><path fill="#000" d="m112.635 57.468-12.29 5.313-.026.224 12.289-5.31.027-.227Z" opacity="0.15"></path><path fill="#FFFFFF" d="m100.344 62.782-2.928-2.178-.027.227 2.929 2.176.026-.224Z"></path><path fill="#EBEBEB" d="m100.343 62.785 12.289-5.313 2.929 2.179-.07.603-12.243 4.934-2.932-2.176.027-.227Z"></path><path fill="#FFFFFF" d="m115.561 59.65-12.287 5.312-2.931-2.177 12.289-5.313 2.929 2.179Z"></path><path fill="#FFFFFF" d="m115.561 59.65-12.287 5.312-2.931-2.177 12.289-5.313 2.929 2.179Z" opacity="0.6"></path><path fill="#FFFFFF" d="m103.274 64.96-2.931-2.176-.027.227 2.932 2.176.026-.227Z"></path><path fill="#FFFFFF" d="m103.274 64.96-2.931-2.176-.027.227 2.932 2.176.026-.227Z" opacity="0.3"></path><path fill="#FFFFFF" d="m103.274 64.958 12.287-5.313 2.932 2.178-.027.227-12.287 5.314-2.931-2.18.026-.226Z"></path><path fill="#FFFFFF" d="m118.493 61.824-12.287 5.313-2.932-2.179 12.287-5.313 2.932 2.178Z"></path><path fill="#FFFFFF" d="m118.327 61.806-12.125 5.332-2.931-2.179 12.287-5.314 2.769 2.16Z" opacity="0.3"></path><path fill="#FFFFFF" d="m118.49 61.823-12.287 5.314-.026.226 12.287-5.313.026-.227Z" opacity="0.15"></path><path fill="#FFFFFF" d="m106.206 67.137-2.932-2.179-.026.227 2.931 2.179.027-.227Z"></path><path fill="#D94407" d="m103.576 64.226-1.925-1.42c-.115-.086-.168-.17-.121-.192.047-.02.179.034.295.118l1.924 1.422c.116.084.168.171.122.192a.462.462 0 0 1-.295-.12ZM104.533 63.814l-1.912-1.42c-.113-.084-.168-.172-.121-.19a.44.44 0 0 1 .294.118l1.911 1.428c.115.087.171.172.121.192-.049.02-.177-.044-.293-.128ZM105.486 63.4l-1.912-1.419c-.115-.087-.17-.171-.124-.192a.456.456 0 0 1 .295.118l1.925 1.422c.115.084.17.171.124.19a.438.438 0 0 1-.308-.12ZM106.441 62.988l-1.912-1.42c-.116-.085-.171-.172-.124-.19.109 0 .214.043.294.118l1.911 1.43c.115.087.17.172.124.193a.451.451 0 0 1-.293-.13ZM107.397 62.574l-1.912-1.418c-.115-.086-.171-.171-.122-.192.05-.02.179.034.295.118l1.91 1.434c.113.083.169.17.122.189a.44.44 0 0 1-.293-.13ZM108.351 62.16l-1.912-1.42c-.116-.086-.171-.17-.122-.19a.46.46 0 0 1 .294.12l1.912 1.418c.116.086.169.17.122.191-.047.021-.179-.033-.294-.12ZM109.307 61.748l-1.912-1.418c-.116-.087-.168-.171-.122-.192.047-.02.179.034.295.118l1.912 1.42c.115.084.168.169.121.19a.44.44 0 0 1-.294-.118ZM110.258 61.334l-1.912-1.419c-.113-.086-.169-.17-.122-.191.11.004.214.046.295.12l1.912 1.418c.115.087.17.171.121.192a.46.46 0 0 1-.294-.12ZM111.213 60.923l-1.925-1.422c-.116-.084-.171-.17-.124-.19a.453.453 0 0 1 .294.118l1.912 1.42c.116.085.171.17.122.19-.05.02-.172-.033-.279-.116ZM112.165 60.507l-1.925-1.42c-.116-.086-.171-.17-.124-.192a.458.458 0 0 1 .294.12l1.912 1.419c.115.086.171.171.124.192a.456.456 0 0 1-.281-.119ZM113.123 60.096l-1.924-1.422c-.116-.084-.171-.171-.122-.189a.444.444 0 0 1 .295.118l1.909 1.418c.115.086.171.171.124.192a.457.457 0 0 1-.282-.117ZM114.086 59.683l-1.925-1.42c-.115-.086-.17-.171-.121-.191.049-.02.179.033.295.117l1.924 1.422c.113.084.168.172.122.192a.462.462 0 0 1-.295-.12Z"></path><path fill="#EFBCA8" d="M82.244 81.625c.714-5.95 2.337-13.794 2.868-16.274l2.783-1.2 11.833 8.79c-.046 1.704-.33 11.11-1.015 17.645L95.93 91.79 82.244 81.625Z"></path><path fill="#D94407" d="m99.727 72.943-2.784 1.205L85.11 65.35l2.783-1.202 11.834 8.794ZM95.927 91.794c.686-6.537.97-15.944 1.016-17.644l-11.834-8.797c-.53 2.48-2.153 10.324-2.867 16.275l13.685 10.166Z"></path><path fill="#D94407" d="M95.925 91.793c.688-6.536.972-15.943 1.018-17.643L85.11 65.354c-.53 2.48-2.154 10.323-2.868 16.274l13.683 10.165Z"></path><path fill="#E0E0E0" d="M45.212 98.993a17.96 17.96 0 0 1 2.443-7.171l4.517-7.524a28.259 28.259 0 0 1 13.01-11.383l19.593-8.47 12.697 9.437s-.286 11.606-1.128 18.858l-21.55 9.333a55.015 55.015 0 0 1-13.245 3.841l-4.872.772a12.091 12.091 0 0 1-9.117-2.241 5.937 5.937 0 0 1-2.348-5.452Z"></path><path fill="#D94407" d="M45.752 96.256c.194-.698.43-1.383.708-2.052l1.724 3.873 8.62 1.608s-1.246 1.587-1.575 2.082c-6.024-.652-9.051-2.251-9.477-5.511Z"></path><path fill="#FAFAFA" d="M55.583 100.307a.693.693 0 0 1-.341.483 2.328 2.328 0 0 1-1.8.141c-.253-.074-.528-.252-.523-.515.011-.57 1.097-.656 1.492-.681.395-.025 1.168.041 1.172.572ZM51.937 100.781c-.116-.035-.166-.077-.187-.127a.24.24 0 0 1 .082-.251.67.67 0 0 1 .676-.183.29.29 0 0 1 .194.359c-.077.3-.513.278-.765.202ZM45.792 96.097a.498.498 0 0 0 .558.051c.493-.282.274-1.013.178-1.267a1.22 1.22 0 0 0-.207-.35c-.403.454-.505 1.15-.53 1.566ZM46.142 96.994a.21.21 0 0 0 .27.102.353.353 0 0 0 .174-.191c.077-.208.094-.4-.034-.514a.309.309 0 0 0-.36-.01c-.23.125-.152.463-.05.613Z"></path><path fill="#FFFFFF" d="M45.186 100.046c.046 1.536 2.356 4.975 7.33 5.445 4.973.47 9.444-1.415 16.25-4.258L96.69 89.156c-.104 1.26-.221 2.474-.35 3.587l-21.548 9.33a55.017 55.017 0 0 1-13.245 3.842l-4.872.772a12.109 12.109 0 0 1-9.117-2.241 5.946 5.946 0 0 1-2.382-4.396l.009-.004Z"></path><path fill="#000" d="M45.186 100.046c.046 1.536 2.356 4.975 7.33 5.445 4.973.47 9.444-1.415 16.25-4.258L96.69 89.156c-.104 1.26-.221 2.474-.35 3.587l-21.548 9.33a55.017 55.017 0 0 1-13.245 3.842l-4.872.772a12.109 12.109 0 0 1-9.117-2.241 5.946 5.946 0 0 1-2.382-4.396l.009-.004Z" opacity="0.2"></path><path fill="#FFFFFF" d="m97.471 73.892.07-.606-12.696-9.437-.07.606 12.696 9.437Z"></path><path fill="#FFFFFF" d="m64.632 72.595 20.213-8.746 12.696 9.437-20.213 8.746c-5.147 2.216-11.613 4.864-21.62 17.951l-7.523-1.917-1.726-3.876c8.593-17.462 13.855-19.657 18.173-21.595Z"></path><path fill="#FFFFFF" d="m64.632 72.595 20.213-8.746 12.696 9.437-20.213 8.746c-5.147 2.216-11.613 4.864-21.62 17.951l-7.523-1.917-1.726-3.876c8.593-17.462 13.855-19.657 18.173-21.595Z" opacity="0.3"></path><path fill="#EFBCA8" d="m47.606 94.218 1.32 2.971 6.65 1.219c5.6-7.236 9.835-10.838 13.63-13.352-5.23-2.493-8.585-5.055-10.341-7.683-3.013 2.73-6.632 7.519-11.259 16.845Z"></path><path fill="#D94407" d="m48.175 94.237 1.118 2.52 6.07 1.07a70.177 70.177 0 0 1 8.26-9.026c-3.361-1.842-6.287-3.916-8.534-6.342-2.202 3.018-4.49 6.92-6.914 11.778Z"></path><path fill="#FFFFFF" d="m77.328 82.033-.07.605c-5.147 2.216-12.594 6.587-20.453 17.048l-1.098.298C65.715 86.897 72.181 84.25 77.328 82.033Z"></path><path fill="#FFFFFF" d="m77.328 82.033-.07.605c-5.147 2.216-12.594 6.587-20.453 17.048l-1.098.298C65.715 86.897 72.181 84.25 77.328 82.033Z" opacity="0.15"></path><path fill="#FFFFFF" d="m77.328 82.031-.07.606 20.213-8.746.07-.605-20.213 8.745Z"></path><path fill="#FFFFFF" d="m77.328 82.031-.07.606 20.213-8.746.07-.605-20.213 8.745Z" opacity="0.15"></path><path fill="#EFBCA8" d="M70.225 99.453 95.44 88.535c.382-5.138.578-10.674.647-12.912l-19.526 8.444c-3.998 1.73-7.707 3.959-10.838 6.991a77.092 77.092 0 0 0-7.235 8.057l5.938 2.852 5.798-2.514Z"></path><path fill="#D94407" d="M66.957 90.878s-.528 2.028-2.573 10.113l-4.63-2.199s4.096-4.976 7.203-7.914Z"></path><path fill="#FFFFFF" d="M66.957 90.878s-.528 2.028-2.573 10.113l-4.63-2.199s4.096-4.976 7.203-7.914Z" opacity="0.1"></path><path fill="#D94407" d="M66.956 90.877c.972-.77 3.701-2.634 3.701-2.634s-.231 7.668-.427 10.054l-5.853 2.693 2.579-10.113ZM94.388 87.91c.28-3.945.453-8.044.546-10.606l-23.1 9.99c-.069 2.192-.216 6.362-.508 10.591l23.062-9.974Z"></path><path fill="#EFBCA8" d="m78.695 95.782-1.4.605c.382-5.12.577-10.642.647-12.912l1.4-.605c-.073 2.266-.264 7.79-.647 12.912ZM87.213 92.102l-1.402.605c.382-5.117.576-10.643.646-12.91l1.401-.62c-.066 2.28-.265 7.802-.645 12.925Z"></path><path fill="#EFBCA8" d="m95.043 79.524-.06.515-16.755 7.245.06-.515 16.755-7.245Z"></path><path fill="#FFFFFF" d="m71.407 75.288-2.932-2.179-.026.227 2.931 2.179.027-.227Z"></path><path fill="#FFFFFF" d="m74.342 77.47-2.931-2.179-.026.227 2.931 2.176.026-.224Z" opacity="0.3"></path><path fill="#FFFFFF" d="m77.268 79.644-2.931-2.177-.026.225 2.931 2.179.026-.227Z"></path><path fill="url(&quot;#train_svg__N&quot;)" d="m74.145 108.173-5.607 48.325 16.972 1.969 5.343-46.057c.893-7.694-3.79-11.592-10.458-8.709-2.197.949-4.337 2.52-6.25 4.472Z"></path><path fill="url(&quot;#train_svg__O&quot;)" d="m66.6 122.837-3.827 32.992.206.024 3.828-32.992c.59-5.084 3.49-10.569 7.316-14.515 1.928-1.99 4.09-3.591 6.311-4.549 3.047-1.317 5.792-1.25 7.718.189 2.09 1.553 3.036 4.62 2.596 8.416l-5.344 46.057.207.024 5.344-46.062c.455-3.928-.496-6.984-2.677-8.606-1.995-1.483-4.81-1.558-7.925-.213-6.688 2.896-12.858 11.523-13.752 19.235Z"></path><defs><linearGradient id="train_svg__a" x1="126.025" x2="2.932" y1="62.518" y2="115.74" gradientUnits="userSpaceOnUse"><stop offset="0.365" stop-color="#D94407"></stop><stop offset="1" stop-color="#E1A389"></stop></linearGradient><linearGradient id="train_svg__b" x1="24.71" x2="24.009" y1="112.634" y2="118.678" gradientUnits="userSpaceOnUse"><stop offset="0.365" stop-color="#D94407"></stop><stop offset="1" stop-color="#E1A389"></stop></linearGradient><linearGradient id="train_svg__c" x1="28.066" x2="27.364" y1="111.186" y2="117.232" gradientUnits="userSpaceOnUse"><stop offset="0.365" stop-color="#D94407"></stop><stop offset="1" stop-color="#E1A389"></stop></linearGradient><linearGradient id="train_svg__d" x1="31.418" x2="30.717" y1="109.737" y2="115.781" gradientUnits="userSpaceOnUse"><stop offset="0.365" stop-color="#D94407"></stop><stop offset="1" stop-color="#E1A389"></stop></linearGradient><linearGradient id="train_svg__e" x1="34.767" x2="34.065" y1="108.288" y2="114.334" gradientUnits="userSpaceOnUse"><stop offset="0.365" stop-color="#D94407"></stop><stop offset="1" stop-color="#E1A389"></stop></linearGradient><linearGradient id="train_svg__f" x1="38.114" x2="37.413" y1="106.839" y2="112.883" gradientUnits="userSpaceOnUse"><stop offset="0.365" stop-color="#D94407"></stop><stop offset="1" stop-color="#E1A389"></stop></linearGradient><linearGradient id="train_svg__g" x1="41.471" x2="40.77" y1="105.389" y2="111.433" gradientUnits="userSpaceOnUse"><stop offset="0.365" stop-color="#D94407"></stop><stop offset="1" stop-color="#E1A389"></stop></linearGradient><linearGradient id="train_svg__h" x1="44.821" x2="44.12" y1="103.944" y2="109.987" gradientUnits="userSpaceOnUse"><stop offset="0.365" stop-color="#D94407"></stop><stop offset="1" stop-color="#E1A389"></stop></linearGradient><linearGradient id="train_svg__i" x1="48.171" x2="47.47" y1="102.494" y2="108.537" gradientUnits="userSpaceOnUse"><stop offset="0.365" stop-color="#D94407"></stop><stop offset="1" stop-color="#E1A389"></stop></linearGradient><linearGradient id="train_svg__j" x1="51.526" x2="50.824" y1="101.042" y2="107.088" gradientUnits="userSpaceOnUse"><stop offset="0.365" stop-color="#D94407"></stop><stop offset="1" stop-color="#E1A389"></stop></linearGradient><linearGradient id="train_svg__k" x1="54.87" x2="54.169" y1="99.595" y2="105.639" gradientUnits="userSpaceOnUse"><stop offset="0.365" stop-color="#D94407"></stop><stop offset="1" stop-color="#E1A389"></stop></linearGradient><linearGradient id="train_svg__l" x1="58.226" x2="57.524" y1="98.145" y2="104.191" gradientUnits="userSpaceOnUse"><stop offset="0.365" stop-color="#D94407"></stop><stop offset="1" stop-color="#E1A389"></stop></linearGradient><linearGradient id="train_svg__m" x1="61.577" x2="60.875" y1="96.698" y2="102.742" gradientUnits="userSpaceOnUse"><stop offset="0.365" stop-color="#D94407"></stop><stop offset="1" stop-color="#E1A389"></stop></linearGradient><linearGradient id="train_svg__n" x1="64.931" x2="64.23" y1="95.248" y2="101.291" gradientUnits="userSpaceOnUse"><stop offset="0.365" stop-color="#D94407"></stop><stop offset="1" stop-color="#E1A389"></stop></linearGradient><linearGradient id="train_svg__o" x1="68.28" x2="67.579" y1="93.8" y2="99.844" gradientUnits="userSpaceOnUse"><stop offset="0.365" stop-color="#D94407"></stop><stop offset="1" stop-color="#E1A389"></stop></linearGradient><linearGradient id="train_svg__p" x1="71.631" x2="70.93" y1="92.35" y2="98.394" gradientUnits="userSpaceOnUse"><stop offset="0.365" stop-color="#D94407"></stop><stop offset="1" stop-color="#E1A389"></stop></linearGradient><linearGradient id="train_svg__q" x1="74.98" x2="74.278" y1="90.9" y2="96.947" gradientUnits="userSpaceOnUse"><stop offset="0.365" stop-color="#D94407"></stop><stop offset="1" stop-color="#E1A389"></stop></linearGradient><linearGradient id="train_svg__r" x1="78.333" x2="77.632" y1="89.452" y2="95.496" gradientUnits="userSpaceOnUse"><stop offset="0.365" stop-color="#D94407"></stop><stop offset="1" stop-color="#E1A389"></stop></linearGradient><linearGradient id="train_svg__s" x1="81.684" x2="80.983" y1="88.003" y2="94.049" gradientUnits="userSpaceOnUse"><stop offset="0.365" stop-color="#D94407"></stop><stop offset="1" stop-color="#E1A389"></stop></linearGradient><linearGradient id="train_svg__t" x1="85.034" x2="84.333" y1="86.555" y2="92.599" gradientUnits="userSpaceOnUse"><stop offset="0.365" stop-color="#D94407"></stop><stop offset="1" stop-color="#E1A389"></stop></linearGradient><linearGradient id="train_svg__u" x1="88.388" x2="87.687" y1="85.105" y2="91.149" gradientUnits="userSpaceOnUse"><stop offset="0.365" stop-color="#D94407"></stop><stop offset="1" stop-color="#E1A389"></stop></linearGradient><linearGradient id="train_svg__v" x1="91.739" x2="91.037" y1="83.657" y2="89.701" gradientUnits="userSpaceOnUse"><stop offset="0.365" stop-color="#D94407"></stop><stop offset="1" stop-color="#E1A389"></stop></linearGradient><linearGradient id="train_svg__w" x1="95.089" x2="94.388" y1="82.207" y2="88.25" gradientUnits="userSpaceOnUse"><stop offset="0.365" stop-color="#D94407"></stop><stop offset="1" stop-color="#E1A389"></stop></linearGradient><linearGradient id="train_svg__x" x1="98.442" x2="97.741" y1="80.76" y2="86.803" gradientUnits="userSpaceOnUse"><stop offset="0.365" stop-color="#D94407"></stop><stop offset="1" stop-color="#E1A389"></stop></linearGradient><linearGradient id="train_svg__y" x1="101.789" x2="101.088" y1="79.309" y2="85.353" gradientUnits="userSpaceOnUse"><stop offset="0.365" stop-color="#D94407"></stop><stop offset="1" stop-color="#E1A389"></stop></linearGradient><linearGradient id="train_svg__z" x1="105.144" x2="104.442" y1="77.859" y2="83.906" gradientUnits="userSpaceOnUse"><stop offset="0.365" stop-color="#D94407"></stop><stop offset="1" stop-color="#E1A389"></stop></linearGradient><linearGradient id="train_svg__A" x1="108.493" x2="107.792" y1="76.412" y2="82.456" gradientUnits="userSpaceOnUse"><stop offset="0.365" stop-color="#D94407"></stop><stop offset="1" stop-color="#E1A389"></stop></linearGradient><linearGradient id="train_svg__B" x1="111.848" x2="111.147" y1="74.962" y2="81.009" gradientUnits="userSpaceOnUse"><stop offset="0.365" stop-color="#D94407"></stop><stop offset="1" stop-color="#E1A389"></stop></linearGradient><linearGradient id="train_svg__C" x1="115.196" x2="114.495" y1="73.515" y2="79.558" gradientUnits="userSpaceOnUse"><stop offset="0.365" stop-color="#D94407"></stop><stop offset="1" stop-color="#E1A389"></stop></linearGradient><linearGradient id="train_svg__D" x1="118.548" x2="117.847" y1="72.065" y2="78.109" gradientUnits="userSpaceOnUse"><stop offset="0.365" stop-color="#D94407"></stop><stop offset="1" stop-color="#E1A389"></stop></linearGradient><linearGradient id="train_svg__E" x1="121.899" x2="121.198" y1="70.618" y2="76.661" gradientUnits="userSpaceOnUse"><stop offset="0.365" stop-color="#D94407"></stop><stop offset="1" stop-color="#E1A389"></stop></linearGradient><linearGradient id="train_svg__F" x1="125.251" x2="124.55" y1="69.168" y2="75.211" gradientUnits="userSpaceOnUse"><stop offset="0.365" stop-color="#D94407"></stop><stop offset="1" stop-color="#E1A389"></stop></linearGradient><linearGradient id="train_svg__G" x1="128.605" x2="127.903" y1="67.717" y2="73.763" gradientUnits="userSpaceOnUse"><stop offset="0.365" stop-color="#D94407"></stop><stop offset="1" stop-color="#E1A389"></stop></linearGradient><linearGradient id="train_svg__H" x1="79.148" x2="71.752" y1="66.592" y2="130.345" gradientUnits="userSpaceOnUse"><stop offset="0.365" stop-color="#D94407"></stop><stop offset="1" stop-color="#E1A389"></stop></linearGradient><linearGradient id="train_svg__I" x1="68.674" x2="61.037" y1="60.153" y2="125.98" gradientUnits="userSpaceOnUse"><stop offset="0.365" stop-color="#D94407"></stop><stop offset="1" stop-color="#E1A389"></stop></linearGradient><linearGradient id="train_svg__J" x1="133.833" x2="14.308" y1="77.52" y2="129.199" gradientUnits="userSpaceOnUse"><stop offset="0.365" stop-color="#D94407"></stop><stop offset="1" stop-color="#E1A389"></stop></linearGradient><linearGradient id="train_svg__K" x1="116.891" x2="109.818" y1="92.13" y2="153.096" gradientUnits="userSpaceOnUse"><stop stop-color="#D94407"></stop><stop offset="0.943" stop-color="#fff" stop-opacity="0"></stop></linearGradient><linearGradient id="train_svg__L" x1="113.762" x2="106.674" y1="91.648" y2="152.736" gradientUnits="userSpaceOnUse"><stop stop-color="#D94407"></stop><stop offset="1" stop-color="#fff" stop-opacity="0"></stop></linearGradient><linearGradient id="train_svg__M" x1="113.939" x2="106.852" y1="91.76" y2="152.847" gradientUnits="userSpaceOnUse"><stop stop-color="#D94407"></stop><stop offset="1" stop-color="#fff" stop-opacity="0"></stop></linearGradient><linearGradient id="train_svg__N" x1="83.395" x2="77.024" y1="102.57" y2="157.482" gradientUnits="userSpaceOnUse"><stop stop-color="#D94407"></stop><stop offset="0.87" stop-color="#fff" stop-opacity="0"></stop></linearGradient><linearGradient id="train_svg__O" x1="80.575" x2="74.191" y1="102.136" y2="157.158" gradientUnits="userSpaceOnUse"><stop stop-color="#D94407"></stop><stop offset="1" stop-color="#fff" stop-opacity="0"></stop></linearGradient><linearGradient id="train_svg__a" x1="126.025" x2="2.932" y1="62.518" y2="115.74" gradientUnits="userSpaceOnUse"><stop offset="0.365" stop-color="#D94407"></stop><stop offset="1" stop-color="#E1A389"></stop></linearGradient><linearGradient id="train_svg__b" x1="24.71" x2="24.009" y1="112.634" y2="118.678" gradientUnits="userSpaceOnUse"><stop offset="0.365" stop-color="#D94407"></stop><stop offset="1" stop-color="#E1A389"></stop></linearGradient><linearGradient id="train_svg__c" x1="28.066" x2="27.364" y1="111.186" y2="117.232" gradientUnits="userSpaceOnUse"><stop offset="0.365" stop-color="#D94407"></stop><stop offset="1" stop-color="#E1A389"></stop></linearGradient><linearGradient id="train_svg__d" x1="31.418" x2="30.717" y1="109.737" y2="115.781" gradientUnits="userSpaceOnUse"><stop offset="0.365" stop-color="#D94407"></stop><stop offset="1" stop-color="#E1A389"></stop></linearGradient><linearGradient id="train_svg__e" x1="34.767" x2="34.065" y1="108.288" y2="114.334" gradientUnits="userSpaceOnUse"><stop offset="0.365" stop-color="#D94407"></stop><stop offset="1" stop-color="#E1A389"></stop></linearGradient><linearGradient id="train_svg__f" x1="38.114" x2="37.413" y1="106.839" y2="112.883" gradientUnits="userSpaceOnUse"><stop offset="0.365" stop-color="#D94407"></stop><stop offset="1" stop-color="#E1A389"></stop></linearGradient><linearGradient id="train_svg__g" x1="41.471" x2="40.77" y1="105.389" y2="111.433" gradientUnits="userSpaceOnUse"><stop offset="0.365" stop-color="#D94407"></stop><stop offset="1" stop-color="#E1A389"></stop></linearGradient><linearGradient id="train_svg__h" x1="44.821" x2="44.12" y1="103.944" y2="109.987" gradientUnits="userSpaceOnUse"><stop offset="0.365" stop-color="#D94407"></stop><stop offset="1" stop-color="#E1A389"></stop></linearGradient><linearGradient id="train_svg__i" x1="48.171" x2="47.47" y1="102.494" y2="108.537" gradientUnits="userSpaceOnUse"><stop offset="0.365" stop-color="#D94407"></stop><stop offset="1" stop-color="#E1A389"></stop></linearGradient><linearGradient id="train_svg__j" x1="51.526" x2="50.824" y1="101.042" y2="107.088" gradientUnits="userSpaceOnUse"><stop offset="0.365" stop-color="#D94407"></stop><stop offset="1" stop-color="#E1A389"></stop></linearGradient><linearGradient id="train_svg__k" x1="54.87" x2="54.169" y1="99.595" y2="105.639" gradientUnits="userSpaceOnUse"><stop offset="0.365" stop-color="#D94407"></stop><stop offset="1" stop-color="#E1A389"></stop></linearGradient><linearGradient id="train_svg__l" x1="58.226" x2="57.524" y1="98.145" y2="104.191" gradientUnits="userSpaceOnUse"><stop offset="0.365" stop-color="#D94407"></stop><stop offset="1" stop-color="#E1A389"></stop></linearGradient><linearGradient id="train_svg__m" x1="61.577" x2="60.875" y1="96.698" y2="102.742" gradientUnits="userSpaceOnUse"><stop offset="0.365" stop-color="#D94407"></stop><stop offset="1" stop-color="#E1A389"></stop></linearGradient><linearGradient id="train_svg__n" x1="64.931" x2="64.23" y1="95.248" y2="101.291" gradientUnits="userSpaceOnUse"><stop offset="0.365" stop-color="#D94407"></stop><stop offset="1" stop-color="#E1A389"></stop></linearGradient><linearGradient id="train_svg__o" x1="68.28" x2="67.579" y1="93.8" y2="99.844" gradientUnits="userSpaceOnUse"><stop offset="0.365" stop-color="#D94407"></stop><stop offset="1" stop-color="#E1A389"></stop></linearGradient><linearGradient id="train_svg__p" x1="71.631" x2="70.93" y1="92.35" y2="98.394" gradientUnits="userSpaceOnUse"><stop offset="0.365" stop-color="#D94407"></stop><stop offset="1" stop-color="#E1A389"></stop></linearGradient><linearGradient id="train_svg__q" x1="74.98" x2="74.278" y1="90.9" y2="96.947" gradientUnits="userSpaceOnUse"><stop offset="0.365" stop-color="#D94407"></stop><stop offset="1" stop-color="#E1A389"></stop></linearGradient><linearGradient id="train_svg__r" x1="78.333" x2="77.632" y1="89.452" y2="95.496" gradientUnits="userSpaceOnUse"><stop offset="0.365" stop-color="#D94407"></stop><stop offset="1" stop-color="#E1A389"></stop></linearGradient><linearGradient id="train_svg__s" x1="81.684" x2="80.983" y1="88.003" y2="94.049" gradientUnits="userSpaceOnUse"><stop offset="0.365" stop-color="#D94407"></stop><stop offset="1" stop-color="#E1A389"></stop></linearGradient><linearGradient id="train_svg__t" x1="85.034" x2="84.333" y1="86.555" y2="92.599" gradientUnits="userSpaceOnUse"><stop offset="0.365" stop-color="#D94407"></stop><stop offset="1" stop-color="#E1A389"></stop></linearGradient><linearGradient id="train_svg__u" x1="88.388" x2="87.687" y1="85.105" y2="91.149" gradientUnits="userSpaceOnUse"><stop offset="0.365" stop-color="#D94407"></stop><stop offset="1" stop-color="#E1A389"></stop></linearGradient><linearGradient id="train_svg__v" x1="91.739" x2="91.037" y1="83.657" y2="89.701" gradientUnits="userSpaceOnUse"><stop offset="0.365" stop-color="#D94407"></stop><stop offset="1" stop-color="#E1A389"></stop></linearGradient><linearGradient id="train_svg__w" x1="95.089" x2="94.388" y1="82.207" y2="88.25" gradientUnits="userSpaceOnUse"><stop offset="0.365" stop-color="#D94407"></stop><stop offset="1" stop-color="#E1A389"></stop></linearGradient><linearGradient id="train_svg__x" x1="98.442" x2="97.741" y1="80.76" y2="86.803" gradientUnits="userSpaceOnUse"><stop offset="0.365" stop-color="#D94407"></stop><stop offset="1" stop-color="#E1A389"></stop></linearGradient><linearGradient id="train_svg__y" x1="101.789" x2="101.088" y1="79.309" y2="85.353" gradientUnits="userSpaceOnUse"><stop offset="0.365" stop-color="#D94407"></stop><stop offset="1" stop-color="#E1A389"></stop></linearGradient><linearGradient id="train_svg__z" x1="105.144" x2="104.442" y1="77.859" y2="83.906" gradientUnits="userSpaceOnUse"><stop offset="0.365" stop-color="#D94407"></stop><stop offset="1" stop-color="#E1A389"></stop></linearGradient><linearGradient id="train_svg__A" x1="108.493" x2="107.792" y1="76.412" y2="82.456" gradientUnits="userSpaceOnUse"><stop offset="0.365" stop-color="#D94407"></stop><stop offset="1" stop-color="#E1A389"></stop></linearGradient><linearGradient id="train_svg__B" x1="111.848" x2="111.147" y1="74.962" y2="81.009" gradientUnits="userSpaceOnUse"><stop offset="0.365" stop-color="#D94407"></stop><stop offset="1" stop-color="#E1A389"></stop></linearGradient><linearGradient id="train_svg__C" x1="115.196" x2="114.495" y1="73.515" y2="79.558" gradientUnits="userSpaceOnUse"><stop offset="0.365" stop-color="#D94407"></stop><stop offset="1" stop-color="#E1A389"></stop></linearGradient><linearGradient id="train_svg__D" x1="118.548" x2="117.847" y1="72.065" y2="78.109" gradientUnits="userSpaceOnUse"><stop offset="0.365" stop-color="#D94407"></stop><stop offset="1" stop-color="#E1A389"></stop></linearGradient><linearGradient id="train_svg__E" x1="121.899" x2="121.198" y1="70.618" y2="76.661" gradientUnits="userSpaceOnUse"><stop offset="0.365" stop-color="#D94407"></stop><stop offset="1" stop-color="#E1A389"></stop></linearGradient><linearGradient id="train_svg__F" x1="125.251" x2="124.55" y1="69.168" y2="75.211" gradientUnits="userSpaceOnUse"><stop offset="0.365" stop-color="#D94407"></stop><stop offset="1" stop-color="#E1A389"></stop></linearGradient><linearGradient id="train_svg__G" x1="128.605" x2="127.903" y1="67.717" y2="73.763" gradientUnits="userSpaceOnUse"><stop offset="0.365" stop-color="#D94407"></stop><stop offset="1" stop-color="#E1A389"></stop></linearGradient><linearGradient id="train_svg__H" x1="79.148" x2="71.752" y1="66.592" y2="130.345" gradientUnits="userSpaceOnUse"><stop offset="0.365" stop-color="#D94407"></stop><stop offset="1" stop-color="#E1A389"></stop></linearGradient><linearGradient id="train_svg__I" x1="68.674" x2="61.037" y1="60.153" y2="125.98" gradientUnits="userSpaceOnUse"><stop offset="0.365" stop-color="#D94407"></stop><stop offset="1" stop-color="#E1A389"></stop></linearGradient><linearGradient id="train_svg__J" x1="133.833" x2="14.308" y1="77.52" y2="129.199" gradientUnits="userSpaceOnUse"><stop offset="0.365" stop-color="#D94407"></stop><stop offset="1" stop-color="#E1A389"></stop></linearGradient><linearGradient id="train_svg__K" x1="116.891" x2="109.818" y1="92.13" y2="153.096" gradientUnits="userSpaceOnUse"><stop stop-color="#D94407"></stop><stop offset="0.943" stop-color="#fff" stop-opacity="0"></stop></linearGradient><linearGradient id="train_svg__L" x1="113.762" x2="106.674" y1="91.648" y2="152.736" gradientUnits="userSpaceOnUse"><stop stop-color="#D94407"></stop><stop offset="1" stop-color="#fff" stop-opacity="0"></stop></linearGradient><linearGradient id="train_svg__M" x1="113.939" x2="106.852" y1="91.76" y2="152.847" gradientUnits="userSpaceOnUse"><stop stop-color="#D94407"></stop><stop offset="1" stop-color="#fff" stop-opacity="0"></stop></linearGradient><linearGradient id="train_svg__N" x1="83.395" x2="77.024" y1="102.57" y2="157.482" gradientUnits="userSpaceOnUse"><stop stop-color="#D94407"></stop><stop offset="0.87" stop-color="#fff" stop-opacity="0"></stop></linearGradient><linearGradient id="train_svg__O" x1="80.575" x2="74.191" y1="102.136" y2="157.158" gradientUnits="userSpaceOnUse"><stop stop-color="#D94407"></stop><stop offset="1" stop-color="#fff" stop-opacity="0"></stop></linearGradient></defs></svg>