<svg xmlns:xlink="http://www.w3.org/1999/xlink" xmlns="http://www.w3.org/2000/svg" width="30" height="30" fill="#D94407" viewBox="0 0 52 51" stroke="#D94407" stroke-width="1.5"><path d="M26.222 31.518a2.421 2.421 0 0 0-.603 0 8.213 8.213 0 0 1-7.94-8.216 8.23 8.23 0 0 1 8.242-8.241c4.547 0 8.24 3.693 8.24 8.241-.024 4.447-3.517 8.065-7.939 8.216ZM42.854 43.682a24.96 24.96 0 0 1-16.934 6.583 24.96 24.96 0 0 1-16.935-6.583c.252-2.362 1.76-4.673 4.447-6.482 6.885-4.573 18.14-4.573 24.975 0 2.688 1.809 4.196 4.12 4.447 6.482Z" stroke="#D94407" fill="#D94407" stroke-width="1.5px"></path></svg>